<?xml version="1.0" encoding="UTF-8" standalone="no"?>
<!-- Created with Inkscape (http://www.inkscape.org/) -->

<svg
   xmlns:dc="http://purl.org/dc/elements/1.1/"
   xmlns:cc="http://creativecommons.org/ns#"
   xmlns:rdf="http://www.w3.org/1999/02/22-rdf-syntax-ns#"
   xmlns:svg="http://www.w3.org/2000/svg"
   xmlns="http://www.w3.org/2000/svg"
   xmlns:sodipodi="http://sodipodi.sourceforge.net/DTD/sodipodi-0.dtd"
   xmlns:inkscape="http://www.inkscape.org/namespaces/inkscape"
   width="793.70081"
   height="1122.5197"
   viewBox="0 0 210 297"
   version="1.1"
   id="svg8"
   sodipodi:docname="gunnarroas.svg"
   inkscape:version="0.92.5 (2060ec1f9f, 2020-04-08)">
  <title
     id="title4752">gunnarro as</title>
  <defs
     id="defs2" />
  <sodipodi:namedview
     id="base"
     pagecolor="#ffffff"
     bordercolor="#666666"
     borderopacity="1.0"
     inkscape:pageopacity="0.0"
     inkscape:pageshadow="2"
     inkscape:zoom="1"
     inkscape:cx="326.07143"
     inkscape:cy="648.57143"
     inkscape:document-units="px"
     inkscape:current-layer="layer1"
     showgrid="false"
     inkscape:snap-text-baseline="true"
     inkscape:window-width="1848"
     inkscape:window-height="1016"
     inkscape:window-x="72"
     inkscape:window-y="27"
     inkscape:window-maximized="1"
     units="px"
     inkscape:pagecheckerboard="false"
     inkscape:snap-global="true"
     inkscape:snap-nodes="true"
     inkscape:snap-smooth-nodes="true"
     inkscape:snap-midpoints="false" />
  <metadata
     id="metadata5">
    <rdf:RDF>
      <cc:Work
         rdf:about="">
        <dc:format>image/svg+xml</dc:format>
        <dc:type
           rdf:resource="http://purl.org/dc/dcmitype/StillImage" />
        <dc:title>gunnarro as</dc:title>
        <dc:date>03-10-2020</dc:date>
      </cc:Work>
    </rdf:RDF>
  </metadata>
  <g
     inkscape:label="Layer 1"
     inkscape:groupmode="layer"
     id="layer1"
     transform="translate(0,3.1680502e-6)">
    <g
       aria-label="gunnarro:as"
       style="font-style:normal;font-variant:normal;font-weight:normal;font-stretch:normal;font-size:10.58333302px;line-height:1.25;font-family:'Andale Mono';-inkscape-font-specification:'Andale Mono, Normal';font-variant-ligatures:normal;font-variant-caps:normal;font-variant-numeric:normal;font-feature-settings:normal;text-align:start;letter-spacing:0px;word-spacing:0px;writing-mode:lr-tb;text-anchor:start;fill:#000086;fill-opacity:1;stroke:none;stroke-width:0.26458332"
       id="text3715"
       transform="matrix(0.71659447,0,0,0.85655298,3.3243315,4.2386562)">
      <path
         d="m 13.414597,33.031578 q -0.754475,0.366903 -0.754475,0.645956 0,0.149861 0.170532,0.253214 0.1757,0.103353 0.475423,0.103353 l 1.813843,-0.05168 q 0.645955,0 1.002522,0.315227 0.361735,0.315226 0.361735,0.894002 0,0.914673 -0.816487,1.457275 -0.816488,0.542603 -1.90686,0.542603 -0.894003,0 -1.462443,-0.377238 -0.568441,-0.37207 -0.568441,-0.966349 0,-0.645956 0.878499,-1.090373 -0.728638,-0.341065 -0.728638,-0.837158 0,-0.568441 0.940511,-1.059367 -0.434082,-0.26355 -0.666625,-0.682129 -0.232544,-0.418579 -0.232544,-0.883667 0,-0.759643 0.516764,-1.245402 0.516764,-0.490926 1.291911,-0.490926 0.558105,0 1.00769,0.232544 l 1.596802,-0.242879 v 0.785481 h -1.028361 q 0.232544,0.408244 0.232544,0.961182 0,0.733805 -0.511597,1.240234 -0.511597,0.506429 -1.297078,0.506429 -0.165365,0 -0.315227,-0.01033 z m 0.315227,-0.614949 q 0.444417,0 0.72347,-0.304891 0.28422,-0.310059 0.28422,-0.806153 0,-0.521932 -0.273885,-0.816487 -0.273885,-0.294556 -0.733805,-0.294556 -0.428915,0 -0.72347,0.310059 -0.289388,0.304891 -0.289388,0.800984 0,0.485759 0.289388,0.800985 0.294555,0.310059 0.72347,0.310059 z m 0.03101,4.149617 q 0.795817,0 1.353922,-0.356567 0.563273,-0.3514 0.563273,-0.873332 0,-0.537435 -0.795817,-0.537435 -0.26355,0 -0.909505,0.03101 -0.408244,0.02067 -0.640788,0.02067 -0.113688,0 -0.356567,0.186036 -0.237712,0.186035 -0.366903,0.37207 -0.124023,0.191203 -0.124023,0.392741 0,0.315226 0.351399,0.537435 0.3514,0.227376 0.925009,0.227376 z"
         style="font-style:normal;font-variant:normal;font-weight:normal;font-stretch:normal;font-size:10.58333302px;font-family:'Andale Mono';-inkscape-font-specification:'Andale Mono, Normal';font-variant-ligatures:normal;font-variant-caps:normal;font-variant-numeric:normal;font-feature-settings:normal;text-align:start;writing-mode:lr-tb;text-anchor:start;fill:#000086;fill-opacity:1;stroke-width:0.26458332"
         id="path4691"
         inkscape:connector-curvature="0" />
      <path
         d="m 22.411464,35.062462 h -0.806152 v -0.795817 q -0.868164,0.925008 -1.829346,0.925008 -1.514119,0 -1.514119,-1.834513 v -3.679362 h 0.806152 v 3.446818 q 0,0.687296 0.217041,1.028361 0.217041,0.335896 0.733805,0.335896 0.738973,0 1.586467,-0.91984 v -3.891235 h 0.806152 z"
         style="font-style:normal;font-variant:normal;font-weight:normal;font-stretch:normal;font-size:10.58333302px;font-family:'Andale Mono';-inkscape-font-specification:'Andale Mono, Normal';font-variant-ligatures:normal;font-variant-caps:normal;font-variant-numeric:normal;font-feature-settings:normal;text-align:start;writing-mode:lr-tb;text-anchor:start;fill:#000086;fill-opacity:1;stroke-width:0.26458332"
         id="path4693"
         inkscape:connector-curvature="0" />
      <path
         d="M 28.772832,35.062462 H 27.96668 v -3.451986 q 0,-0.718302 -0.232544,-1.038696 -0.227376,-0.325561 -0.718302,-0.325561 -0.738973,0 -1.586467,0.91984 v 3.896403 h -0.806152 v -5.384684 h 0.806152 v 0.790649 q 0.868164,-0.91984 1.829346,-0.91984 1.514119,0 1.514119,1.829345 z"
         style="font-style:normal;font-variant:normal;font-weight:normal;font-stretch:normal;font-size:10.58333302px;font-family:'Andale Mono';-inkscape-font-specification:'Andale Mono, Normal';font-variant-ligatures:normal;font-variant-caps:normal;font-variant-numeric:normal;font-feature-settings:normal;text-align:start;writing-mode:lr-tb;text-anchor:start;fill:#000086;fill-opacity:1;stroke-width:0.26458332"
         id="path4695"
         inkscape:connector-curvature="0" />
      <path
         d="m 35.123867,35.062462 h -0.806153 v -3.451986 q 0,-0.718302 -0.232544,-1.038696 -0.227376,-0.325561 -0.718302,-0.325561 -0.738973,0 -1.586467,0.91984 v 3.896403 h -0.806152 v -5.384684 h 0.806152 v 0.790649 q 0.868165,-0.91984 1.829346,-0.91984 1.51412,0 1.51412,1.829345 z"
         style="font-style:normal;font-variant:normal;font-weight:normal;font-stretch:normal;font-size:10.58333302px;font-family:'Andale Mono';-inkscape-font-specification:'Andale Mono, Normal';font-variant-ligatures:normal;font-variant-caps:normal;font-variant-numeric:normal;font-feature-settings:normal;text-align:start;writing-mode:lr-tb;text-anchor:start;fill:#000086;fill-opacity:1;stroke-width:0.26458332"
         id="path4697"
         inkscape:connector-curvature="0" />
      <path
         d="m 41.609258,35.062462 h -0.800985 q -0.09819,-0.325562 -0.09819,-0.868164 -0.687297,1.00769 -1.870687,1.00769 -0.599447,0 -1.059367,-0.423747 -0.454753,-0.428914 -0.454753,-1.100707 0,-0.397909 0.160197,-0.7028 0.160197,-0.304891 0.470256,-0.511597 0.310058,-0.211873 0.754476,-0.330729 0.444417,-0.124023 1.054199,-0.170532 l 0.904337,-0.07235 v -0.258382 q 0,-1.384928 -1.29191,-1.384928 -0.304891,0 -0.775147,0.134358 -0.465088,0.129191 -0.800984,0.310059 L 37.588831,30.11186 q 1.100708,-0.563273 2.046387,-0.563273 1.839681,0 1.839681,1.948201 v 2.315104 q 0,0.7028 0.134359,1.25057 z M 40.668746,33.46566 v -0.976684 q -1.090372,0.09819 -1.498616,0.186035 -0.403076,0.08268 -0.702799,0.315226 -0.294556,0.232544 -0.294556,0.630452 0,0.361735 0.253214,0.583944 0.253215,0.222209 0.645956,0.222209 0.428914,0 0.852661,-0.253215 0.423747,-0.258382 0.74414,-0.707967 z"
         style="font-style:normal;font-variant:normal;font-weight:normal;font-stretch:normal;font-size:10.58333302px;font-family:'Andale Mono';-inkscape-font-specification:'Andale Mono, Normal';font-variant-ligatures:normal;font-variant-caps:normal;font-variant-numeric:normal;font-feature-settings:normal;text-align:start;writing-mode:lr-tb;text-anchor:start;fill:#000086;fill-opacity:1;stroke-width:0.26458332"
         id="path4699"
         inkscape:connector-curvature="0" />
      <path
         d="m 47.908613,29.822472 -0.325561,0.775146 q -0.532267,-0.232544 -0.919841,-0.232544 -0.356567,0 -0.697631,0.206706 -0.341065,0.201538 -0.630453,0.583944 -0.28422,0.377238 -0.28422,0.423746 v 3.482992 h -0.800985 v -5.384684 h 0.800985 v 1.090372 q 0.645955,-1.219563 1.674316,-1.219563 0.609782,0 1.18339,0.273885 z"
         style="font-style:normal;font-variant:normal;font-weight:normal;font-stretch:normal;font-size:10.58333302px;font-family:'Andale Mono';-inkscape-font-specification:'Andale Mono, Normal';font-variant-ligatures:normal;font-variant-caps:normal;font-variant-numeric:normal;font-feature-settings:normal;text-align:start;writing-mode:lr-tb;text-anchor:start;fill:#000086;fill-opacity:1;stroke-width:0.26458332"
         id="path4701"
         inkscape:connector-curvature="0" />
      <path
         d="m 54.259649,29.822472 -0.325561,0.775146 q -0.532267,-0.232544 -0.919841,-0.232544 -0.356567,0 -0.697631,0.206706 -0.341065,0.201538 -0.630453,0.583944 -0.28422,0.377238 -0.28422,0.423746 v 3.482992 h -0.800985 v -5.384684 h 0.800985 v 1.090372 q 0.645955,-1.219563 1.674316,-1.219563 0.609782,0 1.18339,0.273885 z"
         style="font-style:normal;font-variant:normal;font-weight:normal;font-stretch:normal;font-size:10.58333302px;font-family:'Andale Mono';-inkscape-font-specification:'Andale Mono, Normal';font-variant-ligatures:normal;font-variant-caps:normal;font-variant-numeric:normal;font-feature-settings:normal;text-align:start;writing-mode:lr-tb;text-anchor:start;fill:#000086;fill-opacity:1;stroke-width:0.26458332"
         id="path4703"
         inkscape:connector-curvature="0" />
      <path
         d="m 58.440272,29.548587 q 1.111043,0 1.767334,0.775146 0.65629,0.775147 0.65629,2.041219 0,1.276408 -0.65629,2.056722 -0.656291,0.780314 -1.767334,0.780314 -1.116211,0 -1.772502,-0.775146 -0.651123,-0.780314 -0.651123,-2.06189 0,-1.27124 0.656291,-2.041219 0.65629,-0.775146 1.767334,-0.775146 z m 0,4.950602 q 0.733805,0 1.157552,-0.620117 0.423746,-0.620118 0.423746,-1.503785 0,-0.930175 -0.418579,-1.529622 -0.418579,-0.599446 -1.162719,-0.599446 -0.749309,0 -1.16272,0.594278 -0.413412,0.589112 -0.413412,1.53479 0,0.89917 0.41858,1.51412 0.418579,0.609782 1.157552,0.609782 z"
         style="font-style:normal;font-variant:normal;font-weight:normal;font-stretch:normal;font-size:10.58333302px;font-family:'Andale Mono';-inkscape-font-specification:'Andale Mono, Normal';font-variant-ligatures:normal;font-variant-caps:normal;font-variant-numeric:normal;font-feature-settings:normal;text-align:start;writing-mode:lr-tb;text-anchor:start;fill:#000086;fill-opacity:1;stroke-width:0.26458332"
         id="path4705"
         inkscape:connector-curvature="0" />
      <path
         d="m 64.749963,29.600263 q 0.26355,0 0.444417,0.180868 0.180868,0.175699 0.180868,0.434082 0,0.258382 -0.180868,0.439249 -0.180867,0.1757 -0.444417,0.1757 -0.258382,0 -0.43925,-0.1757 -0.1757,-0.180867 -0.1757,-0.439249 0,-0.258383 0.1757,-0.434082 0.180868,-0.180868 0.43925,-0.180868 z m 0,4.32015 q 0.26355,0 0.444417,0.1757 0.180868,0.175699 0.180868,0.439249 0,0.258382 -0.180868,0.434082 -0.180867,0.1757 -0.444417,0.1757 -0.258382,0 -0.43925,-0.1757 -0.1757,-0.1757 -0.1757,-0.434082 0,-0.26355 0.1757,-0.439249 0.180868,-0.1757 0.43925,-0.1757 z"
         style="font-style:normal;font-variant:normal;font-weight:normal;font-stretch:normal;font-size:10.58333302px;font-family:'Andale Mono';-inkscape-font-specification:'Andale Mono, Normal';font-variant-ligatures:normal;font-variant-caps:normal;font-variant-numeric:normal;font-feature-settings:normal;text-align:start;writing-mode:lr-tb;text-anchor:start;fill:#000086;fill-opacity:1;stroke-width:0.26458332"
         id="path4707"
         inkscape:connector-curvature="0" />
      <path
         d="m 73.364423,35.062462 h -0.800985 q -0.09819,-0.325562 -0.09819,-0.868164 -0.687297,1.00769 -1.870687,1.00769 -0.599447,0 -1.059367,-0.423747 -0.454752,-0.428914 -0.454752,-1.100707 0,-0.397909 0.160196,-0.7028 0.160197,-0.304891 0.470256,-0.511597 0.310059,-0.211873 0.754476,-0.330729 0.444417,-0.124023 1.054199,-0.170532 l 0.904338,-0.07235 v -0.258382 q 0,-1.384928 -1.291911,-1.384928 -0.304891,0 -0.775147,0.134358 -0.465088,0.129191 -0.800984,0.310059 L 69.343996,30.11186 q 1.100708,-0.563273 2.046387,-0.563273 1.839681,0 1.839681,1.948201 v 2.315104 q 0,0.7028 0.134359,1.25057 z M 72.423912,33.46566 v -0.976684 q -1.090373,0.09819 -1.498617,0.186035 -0.403076,0.08268 -0.702799,0.315226 -0.294556,0.232544 -0.294556,0.630452 0,0.361735 0.253215,0.583944 0.253214,0.222209 0.645955,0.222209 0.428914,0 0.852661,-0.253215 0.423747,-0.258382 0.744141,-0.707967 z"
         style="font-style:normal;font-variant:normal;font-weight:normal;font-stretch:normal;font-size:10.58333302px;font-family:'Andale Mono';-inkscape-font-specification:'Andale Mono, Normal';font-variant-ligatures:normal;font-variant-caps:normal;font-variant-numeric:normal;font-feature-settings:normal;text-align:start;writing-mode:lr-tb;text-anchor:start;fill:#000086;fill-opacity:1;stroke-width:0.26458332"
         id="path4709"
         inkscape:connector-curvature="0" />
      <path
         d="m 79.017823,30.447757 q -0.676961,-0.222209 -1.276408,-0.222209 -0.65629,0 -1.038696,0.222209 -0.382406,0.217041 -0.382406,0.583943 0,0.232544 0.1757,0.408244 0.1757,0.170532 0.7028,0.320394 l 0.769979,0.222209 q 0.532267,0.149861 0.868164,0.361735 0.335896,0.206705 0.501261,0.506429 0.170532,0.294555 0.170532,0.687296 0,0.769979 -0.645955,1.219564 -0.645956,0.444417 -1.643311,0.444417 -0.992187,0 -1.638143,-0.299723 l 0.15503,-0.697632 q 0.676961,0.320394 1.452107,0.320394 0.671794,0 1.090373,-0.248047 0.423747,-0.253214 0.423747,-0.666626 0,-0.279053 -0.211874,-0.496094 -0.206705,-0.222208 -0.981852,-0.45992 -0.625285,-0.191203 -0.91984,-0.28422 -0.294556,-0.09819 -0.54777,-0.284221 -0.253215,-0.186035 -0.387574,-0.444417 -0.129191,-0.258382 -0.129191,-0.578776 0,-0.697632 0.609782,-1.105876 0.609782,-0.408243 1.617473,-0.408243 0.651123,0 1.44694,0.222208 z"
         style="font-style:normal;font-variant:normal;font-weight:normal;font-stretch:normal;font-size:10.58333302px;font-family:'Andale Mono';-inkscape-font-specification:'Andale Mono, Normal';font-variant-ligatures:normal;font-variant-caps:normal;font-variant-numeric:normal;font-feature-settings:normal;text-align:start;writing-mode:lr-tb;text-anchor:start;fill:#000086;fill-opacity:1;stroke-width:0.26458332"
         id="path4711"
         inkscape:connector-curvature="0" />
    </g>
    <g
       aria-label="it.consulting.services"
       style="font-style:normal;font-variant:normal;font-weight:normal;font-stretch:normal;font-size:7.76111126px;line-height:1;font-family:'Andale Mono';-inkscape-font-specification:'Andale Mono, Normal';font-variant-ligatures:normal;font-variant-caps:normal;font-variant-numeric:normal;font-feature-settings:normal;text-align:start;letter-spacing:0px;word-spacing:0px;writing-mode:lr-tb;text-anchor:start;fill:#0080e4;fill-opacity:1;stroke:none;stroke-width:0.26458332"
       id="text3720"
       transform="matrix(0.71659447,0,0,0.85655298,3.3243315,4.2386562)">
      <path
         d="m 34.069916,39.145606 q 0.166742,0 0.28422,0.121267 0.117478,0.117478 0.117478,0.28422 0,0.174322 -0.117478,0.2918 -0.113688,0.117478 -0.28422,0.117478 -0.155374,0 -0.276642,-0.121268 -0.117477,-0.125057 -0.117477,-0.28801 0,-0.162953 0.117477,-0.28422 0.121268,-0.121267 0.276642,-0.121267 z m 0.28801,5.441873 H 33.766747 V 41.150307 H 32.603338 V 40.63871 h 1.754588 z"
         style="font-style:normal;font-variant:normal;font-weight:normal;font-stretch:normal;font-size:7.76111126px;font-family:'Andale Mono';-inkscape-font-specification:'Andale Mono, Normal';font-variant-ligatures:normal;font-variant-caps:normal;font-variant-numeric:normal;font-feature-settings:normal;text-align:start;writing-mode:lr-tb;text-anchor:start;fill:#0080e4;fill-opacity:1;stroke-width:0.26458332"
         id="path4641"
         inkscape:connector-curvature="0" />
      <path
         d="m 40.038543,44.409367 q -0.594968,0.272852 -1.170988,0.272852 -1.057299,0 -1.057299,-1.117934 V 41.150307 H 37.052335 V 40.63871 h 0.757921 v -1.080037 h 0.57602 v 1.080037 h 1.34152 v 0.511597 h -1.34152 v 2.258604 q 0,0.360013 0.159163,0.560862 0.159163,0.197059 0.432015,0.197059 0.485069,0 0.95877,-0.216007 z"
         style="font-style:normal;font-variant:normal;font-weight:normal;font-stretch:normal;font-size:7.76111126px;font-family:'Andale Mono';-inkscape-font-specification:'Andale Mono, Normal';font-variant-ligatures:normal;font-variant-caps:normal;font-variant-numeric:normal;font-feature-settings:normal;text-align:start;writing-mode:lr-tb;text-anchor:start;fill:#0080e4;fill-opacity:1;stroke-width:0.26458332"
         id="path4643"
         inkscape:connector-curvature="0" />
      <path
         d="m 43.104334,43.719659 q 0.200849,0 0.337275,0.136426 0.136425,0.136426 0.136425,0.337275 0,0.204638 -0.140215,0.352433 -0.136426,0.144005 -0.333485,0.144005 -0.19327,0 -0.329696,-0.144005 -0.136426,-0.147795 -0.136426,-0.352433 0,-0.204639 0.132637,-0.337275 0.136425,-0.136426 0.333485,-0.136426 z"
         style="font-style:normal;font-variant:normal;font-weight:normal;font-stretch:normal;font-size:7.76111126px;font-family:'Andale Mono';-inkscape-font-specification:'Andale Mono, Normal';font-variant-ligatures:normal;font-variant-caps:normal;font-variant-numeric:normal;font-feature-settings:normal;text-align:start;writing-mode:lr-tb;text-anchor:start;fill:#0080e4;fill-opacity:1;stroke-width:0.26458332"
         id="path4645"
         inkscape:connector-curvature="0" />
      <path
         d="m 49.300337,44.454842 q -0.515386,0.234956 -1.133092,0.234956 -0.932242,0 -1.489314,-0.564651 -0.553283,-0.568441 -0.553283,-1.508263 0,-0.939822 0.557072,-1.504473 0.560862,-0.568441 1.470367,-0.568441 0.594968,0 1.133092,0.208428 l -0.155374,0.488859 q -0.538124,-0.18569 -0.970139,-0.18569 -0.651812,0 -1.034562,0.420646 -0.37896,0.420646 -0.37896,1.140671 0,0.659391 0.394119,1.110354 0.394118,0.447174 1.026982,0.447174 0.500228,0 1.030773,-0.19327 z"
         style="font-style:normal;font-variant:normal;font-weight:normal;font-stretch:normal;font-size:7.76111126px;font-family:'Andale Mono';-inkscape-font-specification:'Andale Mono, Normal';font-variant-ligatures:normal;font-variant-caps:normal;font-variant-numeric:normal;font-feature-settings:normal;text-align:start;writing-mode:lr-tb;text-anchor:start;fill:#0080e4;fill-opacity:1;stroke-width:0.26458332"
         id="path4647"
         inkscape:connector-curvature="0" />
      <path
         d="m 52.44192,40.54397 q 0.814765,0 1.296045,0.568441 0.48128,0.568441 0.48128,1.496894 0,0.936032 -0.48128,1.508263 -0.48128,0.57223 -1.296045,0.57223 -0.818554,0 -1.299834,-0.568441 -0.47749,-0.57223 -0.47749,-1.512052 0,-0.932243 0.481279,-1.496894 0.48128,-0.568441 1.296045,-0.568441 z m 0,3.630442 q 0.538124,0 0.848872,-0.454753 0.310747,-0.454753 0.310747,-1.102775 0,-0.682129 -0.306958,-1.121723 -0.306958,-0.439594 -0.852661,-0.439594 -0.549492,0 -0.852661,0.435804 -0.303168,0.432015 -0.303168,1.125513 0,0.659391 0.306958,1.110354 0.306958,0.447174 0.848871,0.447174 z"
         style="font-style:normal;font-variant:normal;font-weight:normal;font-stretch:normal;font-size:7.76111126px;font-family:'Andale Mono';-inkscape-font-specification:'Andale Mono, Normal';font-variant-ligatures:normal;font-variant-caps:normal;font-variant-numeric:normal;font-feature-settings:normal;text-align:start;writing-mode:lr-tb;text-anchor:start;fill:#0080e4;fill-opacity:1;stroke-width:0.26458332"
         id="path4649"
         inkscape:connector-curvature="0" />
      <path
         d="m 58.630346,44.587479 h -0.591179 v -2.531457 q 0,-0.526755 -0.170532,-0.76171 -0.166743,-0.238745 -0.526755,-0.238745 -0.541914,0 -1.163409,0.674549 v 2.857363 H 55.587293 V 40.63871 h 0.591178 v 0.57981 q 0.636654,-0.67455 1.34152,-0.67455 1.110355,0 1.110355,1.34152 z"
         style="font-style:normal;font-variant:normal;font-weight:normal;font-stretch:normal;font-size:7.76111126px;font-family:'Andale Mono';-inkscape-font-specification:'Andale Mono, Normal';font-variant-ligatures:normal;font-variant-caps:normal;font-variant-numeric:normal;font-feature-settings:normal;text-align:start;writing-mode:lr-tb;text-anchor:start;fill:#0080e4;fill-opacity:1;stroke-width:0.26458332"
         id="path4651"
         inkscape:connector-curvature="0" />
      <path
         d="m 62.874702,41.203361 q -0.496439,-0.162953 -0.936033,-0.162953 -0.48128,0 -0.76171,0.162953 -0.280431,0.159164 -0.280431,0.428226 0,0.170532 0.128846,0.299378 0.128847,0.125057 0.515387,0.234956 l 0.564651,0.162953 q 0.390329,0.109899 0.636654,0.265272 0.246324,0.151585 0.367591,0.371382 0.125057,0.216007 0.125057,0.504017 0,0.564651 -0.4737,0.894347 -0.473701,0.325906 -1.205095,0.325906 -0.727604,0 -1.201305,-0.219797 l 0.113689,-0.511597 q 0.496438,0.234956 1.064879,0.234956 0.492648,0 0.799606,-0.181901 0.310748,-0.185691 0.310748,-0.488859 0,-0.204639 -0.155374,-0.363802 -0.151584,-0.162954 -0.720025,-0.337275 -0.458542,-0.140216 -0.67455,-0.208429 -0.216007,-0.072 -0.401698,-0.208428 -0.18569,-0.136426 -0.28422,-0.325906 -0.09474,-0.18948 -0.09474,-0.424436 0,-0.511596 0.447173,-0.810975 0.447174,-0.299379 1.186147,-0.299379 0.47749,0 1.061089,0.162953 z"
         style="font-style:normal;font-variant:normal;font-weight:normal;font-stretch:normal;font-size:7.76111126px;font-family:'Andale Mono';-inkscape-font-specification:'Andale Mono, Normal';font-variant-ligatures:normal;font-variant-caps:normal;font-variant-numeric:normal;font-feature-settings:normal;text-align:start;writing-mode:lr-tb;text-anchor:start;fill:#0080e4;fill-opacity:1;stroke-width:0.26458332"
         id="path4653"
         inkscape:connector-curvature="0" />
      <path
         d="m 67.937614,44.587479 h -0.591178 v -0.5836 q -0.636654,0.67834 -1.34152,0.67834 -1.110354,0 -1.110354,-1.34531 V 40.63871 h 0.591178 v 2.527667 q 0,0.504017 0.159163,0.754131 0.159164,0.246324 0.538124,0.246324 0.541914,0 1.163409,-0.674549 V 40.63871 h 0.591178 z"
         style="font-style:normal;font-variant:normal;font-weight:normal;font-stretch:normal;font-size:7.76111126px;font-family:'Andale Mono';-inkscape-font-specification:'Andale Mono, Normal';font-variant-ligatures:normal;font-variant-caps:normal;font-variant-numeric:normal;font-feature-settings:normal;text-align:start;writing-mode:lr-tb;text-anchor:start;fill:#0080e4;fill-opacity:1;stroke-width:0.26458332"
         id="path4655"
         inkscape:connector-curvature="0" />
      <path
         d="m 72.314609,44.587479 h -1.614372 v -4.835536 h -1.030773 v -0.511597 h 1.621951 v 4.835536 h 1.023194 z"
         style="font-style:normal;font-variant:normal;font-weight:normal;font-stretch:normal;font-size:7.76111126px;font-family:'Andale Mono';-inkscape-font-specification:'Andale Mono, Normal';font-variant-ligatures:normal;font-variant-caps:normal;font-variant-numeric:normal;font-feature-settings:normal;text-align:start;writing-mode:lr-tb;text-anchor:start;fill:#0080e4;fill-opacity:1;stroke-width:0.26458332"
         id="path4657"
         inkscape:connector-curvature="0" />
      <path
         d="m 77.29794,44.409367 q -0.594968,0.272852 -1.170988,0.272852 -1.0573,0 -1.0573,-1.117934 V 41.150307 H 74.311731 V 40.63871 h 0.757921 v -1.080037 h 0.57602 v 1.080037 h 1.34152 v 0.511597 h -1.34152 v 2.258604 q 0,0.360013 0.159163,0.560862 0.159164,0.197059 0.432015,0.197059 0.48507,0 0.95877,-0.216007 z"
         style="font-style:normal;font-variant:normal;font-weight:normal;font-stretch:normal;font-size:7.76111126px;font-family:'Andale Mono';-inkscape-font-specification:'Andale Mono, Normal';font-variant-ligatures:normal;font-variant-caps:normal;font-variant-numeric:normal;font-feature-settings:normal;text-align:start;writing-mode:lr-tb;text-anchor:start;fill:#0080e4;fill-opacity:1;stroke-width:0.26458332"
         id="path4659"
         inkscape:connector-curvature="0" />
      <path
         d="m 80.644161,39.145606 q 0.166743,0 0.28422,0.121267 0.117478,0.117478 0.117478,0.28422 0,0.174322 -0.117478,0.2918 -0.113688,0.117478 -0.28422,0.117478 -0.155374,0 -0.276641,-0.121268 -0.117478,-0.125057 -0.117478,-0.28801 0,-0.162953 0.117478,-0.28422 0.121267,-0.121267 0.276641,-0.121267 z m 0.28801,5.441873 H 80.340993 V 41.150307 H 79.177584 V 40.63871 h 1.754587 z"
         style="font-style:normal;font-variant:normal;font-weight:normal;font-stretch:normal;font-size:7.76111126px;font-family:'Andale Mono';-inkscape-font-specification:'Andale Mono, Normal';font-variant-ligatures:normal;font-variant-caps:normal;font-variant-numeric:normal;font-feature-settings:normal;text-align:start;writing-mode:lr-tb;text-anchor:start;fill:#0080e4;fill-opacity:1;stroke-width:0.26458332"
         id="path4661"
         inkscape:connector-curvature="0" />
      <path
         d="m 86.574893,44.587479 h -0.591178 v -2.531457 q 0,-0.526755 -0.170532,-0.76171 -0.166743,-0.238745 -0.526755,-0.238745 -0.541914,0 -1.163409,0.674549 v 2.857363 H 83.53184 V 40.63871 h 0.591179 v 0.57981 q 0.636654,-0.67455 1.34152,-0.67455 1.110354,0 1.110354,1.34152 z"
         style="font-style:normal;font-variant:normal;font-weight:normal;font-stretch:normal;font-size:7.76111126px;font-family:'Andale Mono';-inkscape-font-specification:'Andale Mono, Normal';font-variant-ligatures:normal;font-variant-caps:normal;font-variant-numeric:normal;font-feature-settings:normal;text-align:start;writing-mode:lr-tb;text-anchor:start;fill:#0080e4;fill-opacity:1;stroke-width:0.26458332"
         id="path4663"
         inkscape:connector-curvature="0" />
      <path
         d="m 89.284457,43.098164 q -0.553282,0.269062 -0.553282,0.4737 0,0.109899 0.125057,0.185691 0.128847,0.07579 0.348644,0.07579 l 1.330151,-0.0379 q 0.473701,0 0.735184,0.231166 0.265272,0.231166 0.265272,0.655602 0,0.67076 -0.598758,1.068668 -0.598757,0.397909 -1.398364,0.397909 -0.655602,0 -1.072458,-0.276641 -0.416857,-0.272852 -0.416857,-0.708656 0,-0.473701 0.644233,-0.799607 -0.534334,-0.250114 -0.534334,-0.613916 0,-0.416857 0.689708,-0.776869 -0.318327,-0.19327 -0.488859,-0.500228 -0.170532,-0.306958 -0.170532,-0.648022 0,-0.557072 0.37896,-0.913295 0.378961,-0.360013 0.947401,-0.360013 0.409278,0 0.738973,0.170532 l 1.170988,-0.178111 v 0.57602 h -0.754131 q 0.170532,0.299379 0.170532,0.704867 0,0.538123 -0.375171,0.909505 -0.375171,0.371381 -0.951191,0.371381 -0.121267,0 -0.231166,-0.0076 z m 0.231166,-0.450963 q 0.325906,0 0.530545,-0.223587 0.208428,-0.227376 0.208428,-0.591178 0,-0.38275 -0.200849,-0.598758 -0.200849,-0.216007 -0.538124,-0.216007 -0.314537,0 -0.530544,0.227376 -0.212218,0.223587 -0.212218,0.587389 0,0.356223 0.212218,0.587389 0.216007,0.227376 0.530544,0.227376 z m 0.02274,3.043053 q 0.583599,0 0.992877,-0.261483 0.413066,-0.257693 0.413066,-0.640443 0,-0.394119 -0.583599,-0.394119 -0.19327,0 -0.66697,0.02274 -0.299379,0.01516 -0.469911,0.01516 -0.08337,0 -0.261483,0.136426 -0.174322,0.136425 -0.269062,0.272851 -0.09095,0.140216 -0.09095,0.28801 0,0.231166 0.257693,0.394119 0.257693,0.166743 0.678339,0.166743 z"
         style="font-style:normal;font-variant:normal;font-weight:normal;font-stretch:normal;font-size:7.76111126px;font-family:'Andale Mono';-inkscape-font-specification:'Andale Mono, Normal';font-variant-ligatures:normal;font-variant-caps:normal;font-variant-numeric:normal;font-feature-settings:normal;text-align:start;writing-mode:lr-tb;text-anchor:start;fill:#0080e4;fill-opacity:1;stroke-width:0.26458332"
         id="path4665"
         inkscape:connector-curvature="0" />
      <path
         d="m 94.336001,43.719659 q 0.200849,0 0.337275,0.136426 0.136426,0.136426 0.136426,0.337275 0,0.204638 -0.140215,0.352433 -0.136426,0.144005 -0.333486,0.144005 -0.19327,0 -0.329695,-0.144005 -0.136426,-0.147795 -0.136426,-0.352433 0,-0.204639 0.132636,-0.337275 0.136426,-0.136426 0.333485,-0.136426 z"
         style="font-style:normal;font-variant:normal;font-weight:normal;font-stretch:normal;font-size:7.76111126px;font-family:'Andale Mono';-inkscape-font-specification:'Andale Mono, Normal';font-variant-ligatures:normal;font-variant-caps:normal;font-variant-numeric:normal;font-feature-settings:normal;text-align:start;writing-mode:lr-tb;text-anchor:start;fill:#0080e4;fill-opacity:1;stroke-width:0.26458332"
         id="path4667"
         inkscape:connector-curvature="0" />
      <path
         d="m 100.1341,41.203361 q -0.496441,-0.162953 -0.936035,-0.162953 -0.48128,0 -0.761711,0.162953 -0.280431,0.159164 -0.280431,0.428226 0,0.170532 0.128847,0.299378 0.128847,0.125057 0.515386,0.234956 l 0.564652,0.162953 q 0.390329,0.109899 0.636652,0.265272 0.24633,0.151585 0.36759,0.371382 0.12506,0.216007 0.12506,0.504017 0,0.564651 -0.4737,0.894347 -0.473701,0.325906 -1.205095,0.325906 -0.727604,0 -1.201305,-0.219797 l 0.113688,-0.511597 q 0.496438,0.234956 1.064879,0.234956 0.492649,0 0.799607,-0.181901 0.310747,-0.185691 0.310747,-0.488859 0,-0.204639 -0.155373,-0.363802 -0.151585,-0.162954 -0.720025,-0.337275 -0.458543,-0.140216 -0.67455,-0.208429 -0.216008,-0.072 -0.401698,-0.208428 -0.185691,-0.136426 -0.284221,-0.325906 -0.09474,-0.18948 -0.09474,-0.424436 0,-0.511596 0.447174,-0.810975 0.447173,-0.299379 1.186146,-0.299379 0.47749,0 1.061086,0.162953 z"
         style="font-style:normal;font-variant:normal;font-weight:normal;font-stretch:normal;font-size:7.76111126px;font-family:'Andale Mono';-inkscape-font-specification:'Andale Mono, Normal';font-variant-ligatures:normal;font-variant-caps:normal;font-variant-numeric:normal;font-feature-settings:normal;text-align:start;writing-mode:lr-tb;text-anchor:start;fill:#0080e4;fill-opacity:1;stroke-width:0.26458332"
         id="path4669"
         inkscape:connector-curvature="0" />
      <path
         d="m 105.32207,42.632042 h -2.70957 q 0,0.670761 0.38654,1.106565 0.39033,0.435805 0.95498,0.435805 0.53812,0 1.11035,-0.19327 l 0.10232,0.4737 q -0.52296,0.234956 -1.22025,0.234956 -0.87919,0 -1.41731,-0.564651 -0.53813,-0.564651 -0.53813,-1.523421 0,-0.939823 0.48128,-1.496894 0.48507,-0.560862 1.25057,-0.560862 0.68213,0 1.14067,0.519176 0.45855,0.519176 0.45855,1.383206 z m -0.64424,-0.481279 q 0,-0.462332 -0.28801,-0.776869 -0.28801,-0.318327 -0.64423,-0.318327 -0.45854,0 -0.76171,0.303168 -0.29938,0.303168 -0.33348,0.792028 z"
         style="font-style:normal;font-variant:normal;font-weight:normal;font-stretch:normal;font-size:7.76111126px;font-family:'Andale Mono';-inkscape-font-specification:'Andale Mono, Normal';font-variant-ligatures:normal;font-variant-caps:normal;font-variant-numeric:normal;font-feature-settings:normal;text-align:start;writing-mode:lr-tb;text-anchor:start;fill:#0080e4;fill-opacity:1;stroke-width:0.26458332"
         id="path4671"
         inkscape:connector-curvature="0" />
      <path
         d="m 109.92265,40.744819 -0.23875,0.568441 q -0.39033,-0.170532 -0.67455,-0.170532 -0.26148,0 -0.51159,0.151584 -0.25012,0.147794 -0.46234,0.428225 -0.20842,0.276641 -0.20842,0.310748 v 2.554194 h -0.58739 V 40.63871 h 0.58739 v 0.799607 q 0.4737,-0.894347 1.22783,-0.894347 0.44717,0 0.86782,0.200849 z"
         style="font-style:normal;font-variant:normal;font-weight:normal;font-stretch:normal;font-size:7.76111126px;font-family:'Andale Mono';-inkscape-font-specification:'Andale Mono, Normal';font-variant-ligatures:normal;font-variant-caps:normal;font-variant-numeric:normal;font-feature-settings:normal;text-align:start;writing-mode:lr-tb;text-anchor:start;fill:#0080e4;fill-opacity:1;stroke-width:0.26458332"
         id="path4673"
         inkscape:connector-curvature="0" />
      <path
         d="m 114.69755,40.63871 -1.49689,3.948769 h -0.53813 l -1.48931,-3.948769 h 0.64423 l 1.11793,3.141583 1.11794,-3.141583 z"
         style="font-style:normal;font-variant:normal;font-weight:normal;font-stretch:normal;font-size:7.76111126px;font-family:'Andale Mono';-inkscape-font-specification:'Andale Mono, Normal';font-variant-ligatures:normal;font-variant-caps:normal;font-variant-numeric:normal;font-feature-settings:normal;text-align:start;writing-mode:lr-tb;text-anchor:start;fill:#0080e4;fill-opacity:1;stroke-width:0.26458332"
         id="path4675"
         inkscape:connector-curvature="0" />
      <path
         d="m 117.90356,39.145606 q 0.16674,0 0.28422,0.121267 0.11747,0.117478 0.11747,0.28422 0,0.174322 -0.11747,0.2918 -0.11369,0.117478 -0.28422,0.117478 -0.15538,0 -0.27664,-0.121268 -0.11748,-0.125057 -0.11748,-0.28801 0,-0.162953 0.11748,-0.28422 0.12126,-0.121267 0.27664,-0.121267 z m 0.28801,5.441873 h -0.59118 v -3.437172 h -1.16341 V 40.63871 h 1.75459 z"
         style="font-style:normal;font-variant:normal;font-weight:normal;font-stretch:normal;font-size:7.76111126px;font-family:'Andale Mono';-inkscape-font-specification:'Andale Mono, Normal';font-variant-ligatures:normal;font-variant-caps:normal;font-variant-numeric:normal;font-feature-settings:normal;text-align:start;writing-mode:lr-tb;text-anchor:start;fill:#0080e4;fill-opacity:1;stroke-width:0.26458332"
         id="path4677"
         inkscape:connector-curvature="0" />
      <path
         d="m 123.81913,44.454842 q -0.51539,0.234956 -1.13309,0.234956 -0.93224,0 -1.48932,-0.564651 -0.55328,-0.568441 -0.55328,-1.508263 0,-0.939822 0.55707,-1.504473 0.56086,-0.568441 1.47037,-0.568441 0.59497,0 1.13309,0.208428 l -0.15537,0.488859 q -0.53813,-0.18569 -0.97014,-0.18569 -0.65181,0 -1.03456,0.420646 -0.37896,0.420646 -0.37896,1.140671 0,0.659391 0.39412,1.110354 0.39411,0.447174 1.02698,0.447174 0.50023,0 1.03077,-0.19327 z"
         style="font-style:normal;font-variant:normal;font-weight:normal;font-stretch:normal;font-size:7.76111126px;font-family:'Andale Mono';-inkscape-font-specification:'Andale Mono, Normal';font-variant-ligatures:normal;font-variant-caps:normal;font-variant-numeric:normal;font-feature-settings:normal;text-align:start;writing-mode:lr-tb;text-anchor:start;fill:#0080e4;fill-opacity:1;stroke-width:0.26458332"
         id="path4679"
         inkscape:connector-curvature="0" />
      <path
         d="m 128.60919,42.632042 h -2.70957 q 0,0.670761 0.38654,1.106565 0.39033,0.435805 0.95498,0.435805 0.53813,0 1.11036,-0.19327 l 0.10232,0.4737 q -0.52297,0.234956 -1.22026,0.234956 -0.87918,0 -1.41731,-0.564651 -0.53812,-0.564651 -0.53812,-1.523421 0,-0.939823 0.48128,-1.496894 0.48507,-0.560862 1.25057,-0.560862 0.68213,0 1.14067,0.519176 0.45854,0.519176 0.45854,1.383206 z m -0.64423,-0.481279 q 0,-0.462332 -0.28801,-0.776869 -0.28801,-0.318327 -0.64423,-0.318327 -0.45855,0 -0.76171,0.303168 -0.29938,0.303168 -0.33349,0.792028 z"
         style="font-style:normal;font-variant:normal;font-weight:normal;font-stretch:normal;font-size:7.76111126px;font-family:'Andale Mono';-inkscape-font-specification:'Andale Mono, Normal';font-variant-ligatures:normal;font-variant-caps:normal;font-variant-numeric:normal;font-feature-settings:normal;text-align:start;writing-mode:lr-tb;text-anchor:start;fill:#0080e4;fill-opacity:1;stroke-width:0.26458332"
         id="path4681"
         inkscape:connector-curvature="0" />
      <path
         d="m 132.73607,41.203361 q -0.49644,-0.162953 -0.93603,-0.162953 -0.48128,0 -0.76171,0.162953 -0.28043,0.159164 -0.28043,0.428226 0,0.170532 0.12884,0.299378 0.12885,0.125057 0.51539,0.234956 l 0.56465,0.162953 q 0.39033,0.109899 0.63666,0.265272 0.24632,0.151585 0.36759,0.371382 0.12505,0.216007 0.12505,0.504017 0,0.564651 -0.4737,0.894347 -0.4737,0.325906 -1.20509,0.325906 -0.7276,0 -1.20131,-0.219797 l 0.11369,-0.511597 q 0.49644,0.234956 1.06488,0.234956 0.49265,0 0.79961,-0.181901 0.31075,-0.185691 0.31075,-0.488859 0,-0.204639 -0.15538,-0.363802 -0.15158,-0.162954 -0.72002,-0.337275 -0.45855,-0.140216 -0.67455,-0.208429 -0.21601,-0.072 -0.4017,-0.208428 -0.18569,-0.136426 -0.28422,-0.325906 -0.0947,-0.18948 -0.0947,-0.424436 0,-0.511596 0.44717,-0.810975 0.44718,-0.299379 1.18615,-0.299379 0.47749,0 1.06109,0.162953 z"
         style="font-style:normal;font-variant:normal;font-weight:normal;font-stretch:normal;font-size:7.76111126px;font-family:'Andale Mono';-inkscape-font-specification:'Andale Mono, Normal';font-variant-ligatures:normal;font-variant-caps:normal;font-variant-numeric:normal;font-feature-settings:normal;text-align:start;writing-mode:lr-tb;text-anchor:start;fill:#0080e4;fill-opacity:1;stroke-width:0.26458332"
         id="path4683"
         inkscape:connector-curvature="0" />
    </g>
    <flowRoot
       xml:space="preserve"
       id="flowRoot3722"
       style="font-style:normal;font-weight:normal;font-size:40px;line-height:1;font-family:sans-serif;letter-spacing:0px;word-spacing:0px;fill:#000000;fill-opacity:1;stroke:none"
       transform="scale(0.26458333)"><flowRegion
         id="flowRegion3724"><rect
           id="rect3726"
           width="431"
           height="62"
           x="201"
           y="282.51968" /></flowRegion><flowPara
         id="flowPara3728"></flowPara></flowRoot>    <g
       aria-label="-&gt;"
       style="font-style:normal;font-variant:normal;font-weight:normal;font-stretch:normal;font-size:6.3499999px;line-height:1;font-family:sans-serif;-inkscape-font-specification:'sans-serif, Normal';font-variant-ligatures:normal;font-variant-caps:normal;font-variant-numeric:normal;font-feature-settings:normal;text-align:start;letter-spacing:0px;word-spacing:0px;writing-mode:lr-tb;text-anchor:start;fill:#00a000;fill-opacity:1;stroke:none;stroke-width:0.26458332"
       id="text4545"
       transform="matrix(0.71659447,0,0,0.85655298,3.3243315,4.2386562)">
      <path
         d="m 22.270432,42.32923 h 1.671215 v 0.508496 h -1.671215 z"
         style="font-style:normal;font-variant:normal;font-weight:normal;font-stretch:normal;font-size:6.3499999px;font-family:sans-serif;-inkscape-font-specification:'sans-serif, Normal';font-variant-ligatures:normal;font-variant-caps:normal;font-variant-numeric:normal;font-feature-settings:normal;text-align:start;writing-mode:lr-tb;text-anchor:start;fill:#00a000;fill-opacity:1;stroke-width:0.26458332"
         id="path4686"
         inkscape:connector-curvature="0" />
      <path
         d="m 24.924533,41.197516 v -0.564307 l 3.974951,1.441773 v 0.514697 l -3.974951,1.441772 v -0.564306 l 3.193603,-1.131714 z"
         style="font-style:normal;font-variant:normal;font-weight:normal;font-stretch:normal;font-size:6.3499999px;font-family:sans-serif;-inkscape-font-specification:'sans-serif, Normal';font-variant-ligatures:normal;font-variant-caps:normal;font-variant-numeric:normal;font-feature-settings:normal;text-align:start;writing-mode:lr-tb;text-anchor:start;fill:#00a000;fill-opacity:1;stroke-width:0.26458332"
         id="path4688"
         inkscape:connector-curvature="0" />
    </g>
  </g>
  <g
     inkscape:groupmode="layer"
     id="layer2"
     inkscape:label="Layer 2"
     transform="translate(0,3.1680502e-6)" />
</svg>
